<svg xmlns="http://www.w3.org/2000/svg" viewBox="0 0 175.92 175.93"><defs><style>.cls-1{fill:#1da1f2;}.cls-2{fill:#fff;}</style></defs><g id="Camada_2" data-name="Camada 2"><g id="Layer_1" data-name="Layer 1"><path class="cls-1" d="M175.92,139.79a36.15,36.15,0,0,1-36.14,36.14H36.14A36.15,36.15,0,0,1,0,139.79V36.14A36.14,36.14,0,0,1,36.14,0H139.78a36.14,36.14,0,0,1,36.14,36.14Z"/><path class="cls-2" d="M67,138.94c46.24,0,71.52-38.31,71.52-71.53,0-1.08,0-2.17-.07-3.24a51.19,51.19,0,0,0,12.53-13,50.23,50.23,0,0,1-14.43,4A25.32,25.32,0,0,0,147.62,41.2a50.37,50.37,0,0,1-16,6.11A25.14,25.14,0,0,0,88.18,64.5a26,26,0,0,0,.64,5.74A71.42,71.42,0,0,1,37,44a25.13,25.13,0,0,0,7.78,33.55,25,25,0,0,1-11.38-3.14c0,.11,0,.21,0,.32A25.14,25.14,0,0,0,53.56,99.34a25.3,25.3,0,0,1-6.62.89,24.45,24.45,0,0,1-4.72-.47,25.15,25.15,0,0,0,23.47,17.47A50.38,50.38,0,0,1,34.47,128a51.78,51.78,0,0,1-6-.35A71.06,71.06,0,0,0,67,138.94"/></g></g></svg>